<svg xmlns="http://www.w3.org/2000/svg" width="1200" height="750" viewBox="0 0 1200 750" role="img" aria-label="Página web rápida en celulares con métricas de rendimiento">
  <defs>
    <linearGradient id="bg" x1="0" x2="1" y1="0" y2="1">
      <stop stop-color="#ec4899"/>
      <stop offset=".5" stop-color="#f97316"/>
      <stop offset="1" stop-color="#2563eb"/>
    </linearGradient>
  </defs>
  <rect width="1200" height="750" fill="#09090f"/>
  <rect x="80" y="80" width="1040" height="590" rx="42" fill="url(#bg)" opacity=".9"/>
  <rect x="170" y="160" width="560" height="360" rx="34" fill="#111827" stroke="#fff" stroke-opacity=".22" stroke-width="4"/>
  <rect x="790" y="145" width="210" height="430" rx="42" fill="#111827" stroke="#fff" stroke-opacity=".22" stroke-width="4"/>
  <g fill="#fff">
    <rect x="220" y="220" width="250" height="30" rx="15"/>
    <rect x="220" y="285" width="420" height="24" rx="12" opacity=".7"/>
    <rect x="220" y="335" width="330" height="24" rx="12" opacity=".7"/>
    <rect x="220" y="410" width="160" height="58" rx="29"/>
    <rect x="835" y="225" width="120" height="22" rx="11"/>
    <rect x="835" y="285" width="120" height="120" rx="24" opacity=".75"/>
    <rect x="835" y="445" width="120" height="42" rx="21"/>
  </g>
  <text x="170" y="625" fill="#fff" font-family="Arial" font-size="48" font-weight="900">Diseño web rápido</text>
</svg>
